<mxfile host="app.diagrams.net" agent="Mozilla/5.0 (Windows NT 10.0; Win64; x64) AppleWebKit/537.36 (KHTML, like Gecko) Chrome/131.0.0.0 Safari/537.36" version="26.0.6">
  <diagram name="第 1 页" id="-1O_J7gIZjRPPeXsD_oY">
    <mxGraphModel dx="1877" dy="618" grid="1" gridSize="10" guides="1" tooltips="1" connect="0" arrows="1" fold="1" page="1" pageScale="1" pageWidth="827" pageHeight="1169" math="0" shadow="0">
      <root>
        <mxCell id="0" />
        <mxCell id="1" parent="0" />
        <mxCell id="vMeQBEV2MEf8IKoleRE7-1" value="ZsOverdriveModelFixture" style="rounded=0;whiteSpace=wrap;html=1;" parent="1" vertex="1">
          <mxGeometry x="90" y="160" width="150" height="60" as="geometry" />
        </mxCell>
        <mxCell id="vMeQBEV2MEf8IKoleRE7-3" style="edgeStyle=orthogonalEdgeStyle;rounded=0;orthogonalLoop=1;jettySize=auto;html=1;" parent="1" source="vMeQBEV2MEf8IKoleRE7-2" edge="1">
          <mxGeometry relative="1" as="geometry">
            <mxPoint x="270" y="270" as="targetPoint" />
          </mxGeometry>
        </mxCell>
        <mxCell id="vMeQBEV2MEf8IKoleRE7-2" value="create a box:[Topo][Box]" style="rounded=0;whiteSpace=wrap;html=1;" parent="1" vertex="1">
          <mxGeometry x="90" y="240" width="150" height="60" as="geometry" />
        </mxCell>
        <mxCell id="vMeQBEV2MEf8IKoleRE7-4" value="" style="rounded=1;whiteSpace=wrap;html=1;" parent="1" vertex="1">
          <mxGeometry x="290" y="240" width="120" height="60" as="geometry" />
        </mxCell>
        <mxCell id="vMeQBEV2MEf8IKoleRE7-5" value="ZsModel" style="swimlane;fontStyle=1;align=center;verticalAlign=top;childLayout=stackLayout;horizontal=1;startSize=26;horizontalStack=0;resizeParent=1;resizeParentMax=0;resizeLast=0;collapsible=1;marginBottom=0;" parent="1" vertex="1">
          <mxGeometry x="290" y="320" width="190" height="230" as="geometry" />
        </mxCell>
        <mxCell id="vMeQBEV2MEf8IKoleRE7-6" value="+ field: type" style="text;strokeColor=none;fillColor=none;align=left;verticalAlign=top;spacingLeft=4;spacingRight=4;overflow=hidden;rotatable=0;points=[[0,0.5],[1,0.5]];portConstraint=eastwest;" parent="vMeQBEV2MEf8IKoleRE7-5" vertex="1">
          <mxGeometry y="26" width="190" height="26" as="geometry" />
        </mxCell>
        <mxCell id="vMeQBEV2MEf8IKoleRE7-7" value="" style="line;strokeWidth=1;fillColor=none;align=left;verticalAlign=middle;spacingTop=-1;spacingLeft=3;spacingRight=3;rotatable=0;labelPosition=right;points=[];portConstraint=eastwest;strokeColor=inherit;" parent="vMeQBEV2MEf8IKoleRE7-5" vertex="1">
          <mxGeometry y="52" width="190" height="8" as="geometry" />
        </mxCell>
        <mxCell id="vMeQBEV2MEf8IKoleRE7-8" value="createPoint&#xa;createline2&#xa;createline2D&#xa;createRetangleLine&#xa;CreateCircle&#xa;CreateCurve&#xa;CreateArcCurve&#xa;" style="text;strokeColor=none;fillColor=none;align=left;verticalAlign=top;spacingLeft=4;spacingRight=4;overflow=hidden;rotatable=0;points=[[0,0.5],[1,0.5]];portConstraint=eastwest;" parent="vMeQBEV2MEf8IKoleRE7-5" vertex="1">
          <mxGeometry y="60" width="190" height="170" as="geometry" />
        </mxCell>
        <mxCell id="yt1u8nISmuahpV6TqOAQ-1" value="ZsFtrDataMgr" style="swimlane;fontStyle=1;align=center;verticalAlign=top;childLayout=stackLayout;horizontal=1;startSize=26;horizontalStack=0;resizeParent=1;resizeParentMax=0;resizeLast=0;collapsible=1;marginBottom=0;" parent="1" vertex="1">
          <mxGeometry x="80" y="320" width="200" height="158" as="geometry" />
        </mxCell>
        <mxCell id="yt1u8nISmuahpV6TqOAQ-2" value="data manager to support &#xa;redefine mechanism" style="text;strokeColor=none;fillColor=none;align=left;verticalAlign=top;spacingLeft=4;spacingRight=4;overflow=hidden;rotatable=0;points=[[0,0.5],[1,0.5]];portConstraint=eastwest;" parent="yt1u8nISmuahpV6TqOAQ-1" vertex="1">
          <mxGeometry y="26" width="200" height="54" as="geometry" />
        </mxCell>
        <mxCell id="yt1u8nISmuahpV6TqOAQ-3" value="" style="line;strokeWidth=1;fillColor=none;align=left;verticalAlign=middle;spacingTop=-1;spacingLeft=3;spacingRight=3;rotatable=0;labelPosition=right;points=[];portConstraint=eastwest;strokeColor=inherit;" parent="yt1u8nISmuahpV6TqOAQ-1" vertex="1">
          <mxGeometry y="80" width="200" height="8" as="geometry" />
        </mxCell>
        <mxCell id="yt1u8nISmuahpV6TqOAQ-4" value="+ method(type): type" style="text;strokeColor=none;fillColor=none;align=left;verticalAlign=top;spacingLeft=4;spacingRight=4;overflow=hidden;rotatable=0;points=[[0,0.5],[1,0.5]];portConstraint=eastwest;" parent="yt1u8nISmuahpV6TqOAQ-1" vertex="1">
          <mxGeometry y="88" width="200" height="70" as="geometry" />
        </mxCell>
        <mxCell id="yt1u8nISmuahpV6TqOAQ-5" value="&lt;font style=&quot;font-size: 14px;&quot;&gt;bug:缩放处理后重新获取参数未改变&lt;br&gt;查看修改之后的接口int ScaleShape（&lt;br&gt;GJS_Model * model,int face_idx,double dScaler）&lt;br&gt;&lt;br&gt;1拿到ZsModel，通过face_idx 拿到facehandle，通过facehandle拿到对应shape handle&lt;br&gt;2获取放缩中心，创建放缩矩阵：&lt;br&gt;3进行旋转，通过shape的handle拿到shape 的id，通过此id构&lt;br&gt;建一个ZsShapeDtm，对此shape进行旋转，利用之前的旋转矩阵。&lt;br&gt;4改变自定义的object的参数：具体步骤拿到shape的id，loc_ScaleParmt&lt;br&gt;具体过程也很简单，通过ZgFtrDataMgr获取构建shape的命令名字，获取shape的参数，根据&lt;br&gt;参数获取类型，基于类型进行参数修改&lt;br&gt;5提交到拓扑表&lt;br&gt;&lt;/font&gt;" style="html=1;" parent="1" vertex="1">
          <mxGeometry x="30" y="600" width="650" height="380" as="geometry" />
        </mxCell>
        <mxCell id="yt1u8nISmuahpV6TqOAQ-6" value="棱镜的创建：buildLensModule&lt;br&gt;CreateLens" style="rounded=1;whiteSpace=wrap;html=1;fontSize=14;" parent="1" vertex="1">
          <mxGeometry x="30" y="990" width="650" height="120" as="geometry" />
        </mxCell>
        <mxCell id="h8vXZWkIKEI4oMdLuwox-1" value="模块" style="rounded=0;whiteSpace=wrap;html=1;" parent="1" vertex="1">
          <mxGeometry x="160" y="1200" width="120" height="60" as="geometry" />
        </mxCell>
        <mxCell id="h8vXZWkIKEI4oMdLuwox-2" value="logging（dll）" style="rounded=0;whiteSpace=wrap;html=1;" parent="1" vertex="1">
          <mxGeometry x="-60" y="1920" width="120" height="60" as="geometry" />
        </mxCell>
        <mxCell id="h8vXZWkIKEI4oMdLuwox-41" style="edgeStyle=orthogonalEdgeStyle;rounded=0;orthogonalLoop=1;jettySize=auto;html=1;exitX=1;exitY=0.5;exitDx=0;exitDy=0;" parent="1" source="h8vXZWkIKEI4oMdLuwox-5" edge="1">
          <mxGeometry relative="1" as="geometry">
            <mxPoint x="830" y="1720" as="targetPoint" />
          </mxGeometry>
        </mxCell>
        <mxCell id="h8vXZWkIKEI4oMdLuwox-5" value="nurbs（static）" style="rounded=0;whiteSpace=wrap;html=1;" parent="1" vertex="1">
          <mxGeometry x="-60" y="1560" width="120" height="60" as="geometry" />
        </mxCell>
        <mxCell id="h8vXZWkIKEI4oMdLuwox-8" value="" style="edgeStyle=orthogonalEdgeStyle;rounded=0;orthogonalLoop=1;jettySize=auto;html=1;" parent="1" source="h8vXZWkIKEI4oMdLuwox-6" target="h8vXZWkIKEI4oMdLuwox-7" edge="1">
          <mxGeometry relative="1" as="geometry" />
        </mxCell>
        <mxCell id="h8vXZWkIKEI4oMdLuwox-6" value="CoreUtilities（static）" style="rounded=0;whiteSpace=wrap;html=1;" parent="1" vertex="1">
          <mxGeometry x="-60" y="1650" width="120" height="60" as="geometry" />
        </mxCell>
        <mxCell id="h8vXZWkIKEI4oMdLuwox-33" value="" style="edgeStyle=orthogonalEdgeStyle;rounded=0;orthogonalLoop=1;jettySize=auto;html=1;" parent="1" source="h8vXZWkIKEI4oMdLuwox-7" target="h8vXZWkIKEI4oMdLuwox-28" edge="1">
          <mxGeometry relative="1" as="geometry" />
        </mxCell>
        <mxCell id="WD0VOLjLb8rx63cyiyeR-31" style="edgeStyle=orthogonalEdgeStyle;rounded=0;orthogonalLoop=1;jettySize=auto;html=1;exitX=0.5;exitY=0;exitDx=0;exitDy=0;entryX=0;entryY=0.5;entryDx=0;entryDy=0;" parent="1" source="h8vXZWkIKEI4oMdLuwox-7" target="WD0VOLjLb8rx63cyiyeR-27" edge="1">
          <mxGeometry relative="1" as="geometry">
            <Array as="points">
              <mxPoint x="180" y="1490" />
              <mxPoint x="1010" y="1490" />
            </Array>
          </mxGeometry>
        </mxCell>
        <mxCell id="h8vXZWkIKEI4oMdLuwox-7" value="base（dll）" style="rounded=0;whiteSpace=wrap;html=1;" parent="1" vertex="1">
          <mxGeometry x="120" y="1650" width="120" height="60" as="geometry" />
        </mxCell>
        <mxCell id="h8vXZWkIKEI4oMdLuwox-20" value="" style="edgeStyle=orthogonalEdgeStyle;rounded=0;orthogonalLoop=1;jettySize=auto;html=1;" parent="1" source="h8vXZWkIKEI4oMdLuwox-9" target="h8vXZWkIKEI4oMdLuwox-19" edge="1">
          <mxGeometry relative="1" as="geometry" />
        </mxCell>
        <mxCell id="h8vXZWkIKEI4oMdLuwox-9" value="math（static)" style="rounded=0;whiteSpace=wrap;html=1;" parent="1" vertex="1">
          <mxGeometry x="-60" y="2180" width="120" height="60" as="geometry" />
        </mxCell>
        <mxCell id="h8vXZWkIKEI4oMdLuwox-22" value="" style="edgeStyle=orthogonalEdgeStyle;rounded=0;orthogonalLoop=1;jettySize=auto;html=1;entryX=0.5;entryY=1;entryDx=0;entryDy=0;" parent="1" source="h8vXZWkIKEI4oMdLuwox-10" target="h8vXZWkIKEI4oMdLuwox-19" edge="1">
          <mxGeometry relative="1" as="geometry">
            <mxPoint x="210" y="2130" as="targetPoint" />
          </mxGeometry>
        </mxCell>
        <mxCell id="h8vXZWkIKEI4oMdLuwox-10" value="tools（static）" style="rounded=0;whiteSpace=wrap;html=1;" parent="1" vertex="1">
          <mxGeometry x="-60" y="2278" width="120" height="60" as="geometry" />
        </mxCell>
        <mxCell id="h8vXZWkIKEI4oMdLuwox-24" value="" style="edgeStyle=orthogonalEdgeStyle;rounded=0;orthogonalLoop=1;jettySize=auto;html=1;entryX=0.614;entryY=1.071;entryDx=0;entryDy=0;entryPerimeter=0;" parent="1" source="h8vXZWkIKEI4oMdLuwox-11" target="h8vXZWkIKEI4oMdLuwox-19" edge="1">
          <mxGeometry relative="1" as="geometry">
            <mxPoint x="520" y="2100" as="targetPoint" />
          </mxGeometry>
        </mxCell>
        <mxCell id="h8vXZWkIKEI4oMdLuwox-11" value="dmgr（static）" style="rounded=0;whiteSpace=wrap;html=1;" parent="1" vertex="1">
          <mxGeometry x="-60" y="2380" width="120" height="60" as="geometry" />
        </mxCell>
        <mxCell id="h8vXZWkIKEI4oMdLuwox-37" value="" style="edgeStyle=orthogonalEdgeStyle;rounded=0;orthogonalLoop=1;jettySize=auto;html=1;entryX=0;entryY=0.5;entryDx=0;entryDy=0;" parent="1" source="h8vXZWkIKEI4oMdLuwox-12" target="h8vXZWkIKEI4oMdLuwox-13" edge="1">
          <mxGeometry relative="1" as="geometry">
            <mxPoint x="140" y="1760" as="targetPoint" />
          </mxGeometry>
        </mxCell>
        <mxCell id="h8vXZWkIKEI4oMdLuwox-12" value="geom（static）" style="rounded=0;whiteSpace=wrap;html=1;" parent="1" vertex="1">
          <mxGeometry x="-60" y="1730" width="120" height="60" as="geometry" />
        </mxCell>
        <mxCell id="WD0VOLjLb8rx63cyiyeR-4" value="" style="edgeStyle=orthogonalEdgeStyle;rounded=0;orthogonalLoop=1;jettySize=auto;html=1;" parent="1" source="h8vXZWkIKEI4oMdLuwox-13" target="WD0VOLjLb8rx63cyiyeR-3" edge="1">
          <mxGeometry relative="1" as="geometry" />
        </mxCell>
        <mxCell id="WD0VOLjLb8rx63cyiyeR-30" style="edgeStyle=orthogonalEdgeStyle;rounded=0;orthogonalLoop=1;jettySize=auto;html=1;exitX=1;exitY=0.25;exitDx=0;exitDy=0;entryX=0;entryY=0.5;entryDx=0;entryDy=0;" parent="1" source="h8vXZWkIKEI4oMdLuwox-13" target="WD0VOLjLb8rx63cyiyeR-27" edge="1">
          <mxGeometry relative="1" as="geometry" />
        </mxCell>
        <mxCell id="h8vXZWkIKEI4oMdLuwox-13" value="geomCore（dll）" style="rounded=0;whiteSpace=wrap;html=1;" parent="1" vertex="1">
          <mxGeometry x="770" y="1724" width="120" height="60" as="geometry" />
        </mxCell>
        <mxCell id="h8vXZWkIKEI4oMdLuwox-17" value="" style="edgeStyle=orthogonalEdgeStyle;rounded=0;orthogonalLoop=1;jettySize=auto;html=1;entryX=0.667;entryY=1;entryDx=0;entryDy=0;entryPerimeter=0;" parent="1" source="h8vXZWkIKEI4oMdLuwox-15" target="h8vXZWkIKEI4oMdLuwox-13" edge="1">
          <mxGeometry relative="1" as="geometry">
            <mxPoint x="390" y="1720" as="targetPoint" />
          </mxGeometry>
        </mxCell>
        <mxCell id="h8vXZWkIKEI4oMdLuwox-15" value="blas（dll)" style="rounded=0;whiteSpace=wrap;html=1;" parent="1" vertex="1">
          <mxGeometry x="590" y="1820" width="120" height="60" as="geometry" />
        </mxCell>
        <mxCell id="h8vXZWkIKEI4oMdLuwox-40" style="edgeStyle=orthogonalEdgeStyle;rounded=0;orthogonalLoop=1;jettySize=auto;html=1;exitX=1;exitY=0.5;exitDx=0;exitDy=0;" parent="1" source="h8vXZWkIKEI4oMdLuwox-19" edge="1">
          <mxGeometry relative="1" as="geometry">
            <mxPoint x="810" y="1790" as="targetPoint" />
          </mxGeometry>
        </mxCell>
        <mxCell id="WD0VOLjLb8rx63cyiyeR-2" style="edgeStyle=orthogonalEdgeStyle;rounded=0;orthogonalLoop=1;jettySize=auto;html=1;" parent="1" source="h8vXZWkIKEI4oMdLuwox-19" target="WD0VOLjLb8rx63cyiyeR-1" edge="1">
          <mxGeometry relative="1" as="geometry" />
        </mxCell>
        <mxCell id="WD0VOLjLb8rx63cyiyeR-5" style="edgeStyle=orthogonalEdgeStyle;rounded=0;orthogonalLoop=1;jettySize=auto;html=1;exitX=1;exitY=0.5;exitDx=0;exitDy=0;entryX=0.75;entryY=1;entryDx=0;entryDy=0;" parent="1" source="h8vXZWkIKEI4oMdLuwox-19" target="WD0VOLjLb8rx63cyiyeR-3" edge="1">
          <mxGeometry relative="1" as="geometry">
            <mxPoint x="1030" y="1789.9999999999995" as="targetPoint" />
          </mxGeometry>
        </mxCell>
        <mxCell id="WD0VOLjLb8rx63cyiyeR-10" style="edgeStyle=orthogonalEdgeStyle;rounded=0;orthogonalLoop=1;jettySize=auto;html=1;exitX=1;exitY=0.5;exitDx=0;exitDy=0;entryX=0.5;entryY=0;entryDx=0;entryDy=0;" parent="1" source="h8vXZWkIKEI4oMdLuwox-19" target="WD0VOLjLb8rx63cyiyeR-8" edge="1">
          <mxGeometry relative="1" as="geometry" />
        </mxCell>
        <mxCell id="WD0VOLjLb8rx63cyiyeR-29" style="edgeStyle=orthogonalEdgeStyle;rounded=0;orthogonalLoop=1;jettySize=auto;html=1;exitX=1;exitY=0.75;exitDx=0;exitDy=0;entryX=0.5;entryY=1;entryDx=0;entryDy=0;" parent="1" source="h8vXZWkIKEI4oMdLuwox-19" target="WD0VOLjLb8rx63cyiyeR-27" edge="1">
          <mxGeometry relative="1" as="geometry">
            <mxPoint x="1060" y="1570" as="targetPoint" />
            <Array as="points">
              <mxPoint x="1080" y="2055" />
              <mxPoint x="1080" y="1560" />
            </Array>
          </mxGeometry>
        </mxCell>
        <mxCell id="h8vXZWkIKEI4oMdLuwox-19" value="core（dll）" style="rounded=0;whiteSpace=wrap;html=1;" parent="1" vertex="1">
          <mxGeometry x="440" y="2010" width="120" height="60" as="geometry" />
        </mxCell>
        <mxCell id="h8vXZWkIKEI4oMdLuwox-26" value="" style="endArrow=block;endFill=1;html=1;edgeStyle=orthogonalEdgeStyle;align=left;verticalAlign=top;rounded=0;entryX=0.5;entryY=0;entryDx=0;entryDy=0;" parent="1" target="h8vXZWkIKEI4oMdLuwox-19" edge="1">
          <mxGeometry x="-1" relative="1" as="geometry">
            <mxPoint x="60" y="1980" as="sourcePoint" />
            <mxPoint x="220" y="1980" as="targetPoint" />
          </mxGeometry>
        </mxCell>
        <mxCell id="h8vXZWkIKEI4oMdLuwox-27" value="1" style="edgeLabel;resizable=0;html=1;align=left;verticalAlign=bottom;" parent="h8vXZWkIKEI4oMdLuwox-26" connectable="0" vertex="1">
          <mxGeometry x="-1" relative="1" as="geometry" />
        </mxCell>
        <mxCell id="h8vXZWkIKEI4oMdLuwox-35" value="" style="edgeStyle=orthogonalEdgeStyle;rounded=0;orthogonalLoop=1;jettySize=auto;html=1;entryX=0.75;entryY=0;entryDx=0;entryDy=0;" parent="1" source="h8vXZWkIKEI4oMdLuwox-28" target="h8vXZWkIKEI4oMdLuwox-19" edge="1">
          <mxGeometry relative="1" as="geometry">
            <mxPoint x="550" y="2020" as="targetPoint" />
          </mxGeometry>
        </mxCell>
        <mxCell id="h8vXZWkIKEI4oMdLuwox-28" value="config（dll）" style="rounded=0;whiteSpace=wrap;html=1;" parent="1" vertex="1">
          <mxGeometry x="290" y="1650" width="120" height="60" as="geometry" />
        </mxCell>
        <mxCell id="h8vXZWkIKEI4oMdLuwox-39" value="" style="endArrow=open;endFill=1;endSize=12;html=1;rounded=0;exitX=1;exitY=0.5;exitDx=0;exitDy=0;" parent="1" source="h8vXZWkIKEI4oMdLuwox-2" edge="1">
          <mxGeometry width="160" relative="1" as="geometry">
            <mxPoint x="330" y="1930" as="sourcePoint" />
            <mxPoint x="830" y="1790" as="targetPoint" />
            <Array as="points">
              <mxPoint x="830" y="1960" />
            </Array>
          </mxGeometry>
        </mxCell>
        <mxCell id="ahFS29yWS6DuyMkJrLS5-2" value="" style="edgeStyle=orthogonalEdgeStyle;rounded=0;orthogonalLoop=1;jettySize=auto;html=1;entryX=-0.029;entryY=0.462;entryDx=0;entryDy=0;entryPerimeter=0;" parent="1" source="WD0VOLjLb8rx63cyiyeR-1" target="WD0VOLjLb8rx63cyiyeR-23" edge="1">
          <mxGeometry relative="1" as="geometry">
            <mxPoint x="950" y="2200" as="targetPoint" />
          </mxGeometry>
        </mxCell>
        <mxCell id="WD0VOLjLb8rx63cyiyeR-1" value="om（dll），同时直接依赖与base config core logging" style="rounded=0;whiteSpace=wrap;html=1;" parent="1" vertex="1">
          <mxGeometry x="730" y="2170" width="120" height="60" as="geometry" />
        </mxCell>
        <mxCell id="WD0VOLjLb8rx63cyiyeR-3" value="db（dll）" style="whiteSpace=wrap;html=1;rounded=0;" parent="1" vertex="1">
          <mxGeometry x="1290" y="1724" width="120" height="60" as="geometry" />
        </mxCell>
        <mxCell id="WD0VOLjLb8rx63cyiyeR-7" style="edgeStyle=orthogonalEdgeStyle;rounded=0;orthogonalLoop=1;jettySize=auto;html=1;exitX=1;exitY=0.5;exitDx=0;exitDy=0;entryX=0.5;entryY=1;entryDx=0;entryDy=0;" parent="1" source="WD0VOLjLb8rx63cyiyeR-6" target="WD0VOLjLb8rx63cyiyeR-3" edge="1">
          <mxGeometry relative="1" as="geometry">
            <mxPoint x="1030" y="1799.9999999999995" as="targetPoint" />
          </mxGeometry>
        </mxCell>
        <mxCell id="WD0VOLjLb8rx63cyiyeR-6" value="dimen（static）" style="rounded=0;whiteSpace=wrap;html=1;" parent="1" vertex="1">
          <mxGeometry x="-60" y="2500" width="120" height="60" as="geometry" />
        </mxCell>
        <mxCell id="WD0VOLjLb8rx63cyiyeR-9" style="edgeStyle=orthogonalEdgeStyle;rounded=0;orthogonalLoop=1;jettySize=auto;html=1;exitX=1;exitY=0.5;exitDx=0;exitDy=0;entryX=0.25;entryY=1;entryDx=0;entryDy=0;" parent="1" source="WD0VOLjLb8rx63cyiyeR-8" target="WD0VOLjLb8rx63cyiyeR-3" edge="1">
          <mxGeometry relative="1" as="geometry">
            <mxPoint x="1030" y="1810" as="targetPoint" />
          </mxGeometry>
        </mxCell>
        <mxCell id="WD0VOLjLb8rx63cyiyeR-8" value="disp（dll）" style="rounded=0;whiteSpace=wrap;html=1;" parent="1" vertex="1">
          <mxGeometry x="640" y="2620" width="120" height="60" as="geometry" />
        </mxCell>
        <mxCell id="WD0VOLjLb8rx63cyiyeR-12" style="edgeStyle=orthogonalEdgeStyle;rounded=0;orthogonalLoop=1;jettySize=auto;html=1;exitX=1;exitY=0.5;exitDx=0;exitDy=0;" parent="1" source="WD0VOLjLb8rx63cyiyeR-11" target="WD0VOLjLb8rx63cyiyeR-8" edge="1">
          <mxGeometry relative="1" as="geometry" />
        </mxCell>
        <mxCell id="WD0VOLjLb8rx63cyiyeR-11" value="emf（static）" style="rounded=1;whiteSpace=wrap;html=1;" parent="1" vertex="1">
          <mxGeometry x="-50" y="2660" width="120" height="60" as="geometry" />
        </mxCell>
        <mxCell id="WD0VOLjLb8rx63cyiyeR-13" value="eps（static）" style="rounded=1;whiteSpace=wrap;html=1;" parent="1" vertex="1">
          <mxGeometry x="-50" y="2730" width="120" height="60" as="geometry" />
        </mxCell>
        <mxCell id="WD0VOLjLb8rx63cyiyeR-14" value="gl（static）" style="rounded=1;whiteSpace=wrap;html=1;" parent="1" vertex="1">
          <mxGeometry x="-50" y="2800" width="120" height="60" as="geometry" />
        </mxCell>
        <mxCell id="WD0VOLjLb8rx63cyiyeR-16" value="glw（static）" style="rounded=1;whiteSpace=wrap;html=1;" parent="1" vertex="1">
          <mxGeometry x="-50" y="2870" width="120" height="60" as="geometry" />
        </mxCell>
        <mxCell id="WD0VOLjLb8rx63cyiyeR-17" value="hpgl（static）" style="rounded=1;whiteSpace=wrap;html=1;" parent="1" vertex="1">
          <mxGeometry x="-50" y="2940" width="120" height="60" as="geometry" />
        </mxCell>
        <mxCell id="WD0VOLjLb8rx63cyiyeR-18" value="img（static）" style="rounded=1;whiteSpace=wrap;html=1;" parent="1" vertex="1">
          <mxGeometry x="-50" y="3010" width="120" height="60" as="geometry" />
        </mxCell>
        <mxCell id="WD0VOLjLb8rx63cyiyeR-19" value="pcl（static）" style="rounded=1;whiteSpace=wrap;html=1;" parent="1" vertex="1">
          <mxGeometry x="-50" y="3080" width="120" height="60" as="geometry" />
        </mxCell>
        <mxCell id="WD0VOLjLb8rx63cyiyeR-22" value="disp" style="text;html=1;strokeColor=none;fillColor=none;align=center;verticalAlign=middle;whiteSpace=wrap;rounded=0;" parent="1" vertex="1">
          <mxGeometry x="-140" y="2900" width="60" height="30" as="geometry" />
        </mxCell>
        <mxCell id="WD0VOLjLb8rx63cyiyeR-23" value="documentsystem" style="rounded=0;whiteSpace=wrap;html=1;" parent="1" vertex="1">
          <mxGeometry x="1110" y="2170" width="120" height="60" as="geometry" />
        </mxCell>
        <mxCell id="WD0VOLjLb8rx63cyiyeR-24" value="font（static）" style="rounded=0;whiteSpace=wrap;html=1;" parent="1" vertex="1">
          <mxGeometry x="-60" y="1460" width="120" height="60" as="geometry" />
        </mxCell>
        <mxCell id="WD0VOLjLb8rx63cyiyeR-25" value="pin（lib）" style="rounded=0;whiteSpace=wrap;html=1;" parent="1" vertex="1">
          <mxGeometry x="-60" y="1370" width="120" height="60" as="geometry" />
        </mxCell>
        <mxCell id="WD0VOLjLb8rx63cyiyeR-34" style="edgeStyle=orthogonalEdgeStyle;rounded=0;orthogonalLoop=1;jettySize=auto;html=1;exitX=1;exitY=0.5;exitDx=0;exitDy=0;" parent="1" source="WD0VOLjLb8rx63cyiyeR-26" edge="1">
          <mxGeometry relative="1" as="geometry">
            <mxPoint x="1372.3529411764705" y="1719.9999999999995" as="targetPoint" />
          </mxGeometry>
        </mxCell>
        <mxCell id="WD0VOLjLb8rx63cyiyeR-26" value="tess(static)" style="rounded=0;whiteSpace=wrap;html=1;" parent="1" vertex="1">
          <mxGeometry x="-60" y="1290" width="120" height="60" as="geometry" />
        </mxCell>
        <mxCell id="WD0VOLjLb8rx63cyiyeR-33" style="edgeStyle=orthogonalEdgeStyle;rounded=0;orthogonalLoop=1;jettySize=auto;html=1;exitX=1;exitY=0.5;exitDx=0;exitDy=0;" parent="1" source="WD0VOLjLb8rx63cyiyeR-27" edge="1">
          <mxGeometry relative="1" as="geometry">
            <mxPoint x="1340" y="1719.9999999999995" as="targetPoint" />
          </mxGeometry>
        </mxCell>
        <mxCell id="WD0VOLjLb8rx63cyiyeR-27" value="topo(dll)" style="rounded=0;whiteSpace=wrap;html=1;" parent="1" vertex="1">
          <mxGeometry x="1010" y="1500" width="120" height="60" as="geometry" />
        </mxCell>
        <mxCell id="WD0VOLjLb8rx63cyiyeR-35" value="zwgeom" style="text;html=1;strokeColor=none;fillColor=none;align=center;verticalAlign=middle;whiteSpace=wrap;rounded=0;" parent="1" vertex="1">
          <mxGeometry x="-200" y="1401" width="60" height="30" as="geometry" />
        </mxCell>
        <mxCell id="lquZL2fxnpSy8sfULwLA-1" value="" style="rounded=0;whiteSpace=wrap;html=1;" parent="1" vertex="1">
          <mxGeometry x="1610" y="2170" width="120" height="60" as="geometry" />
        </mxCell>
        <mxCell id="sl05fwOqfnAp1xRpPxl5-1" value="cad(static)" style="rounded=0;whiteSpace=wrap;html=1;" parent="1" vertex="1">
          <mxGeometry x="160" y="3350" width="120" height="60" as="geometry" />
        </mxCell>
        <mxCell id="sl05fwOqfnAp1xRpPxl5-2" value="rgbservice" style="rounded=0;whiteSpace=wrap;html=1;" parent="1" vertex="1">
          <mxGeometry x="-50" y="3370" width="120" height="60" as="geometry" />
        </mxCell>
        <mxCell id="6mDI3OhpWZzd0p22wOLu-1" value="appl（static）" style="rounded=0;whiteSpace=wrap;html=1;" parent="1" vertex="1">
          <mxGeometry x="1120" y="2970" width="120" height="60" as="geometry" />
        </mxCell>
        <mxCell id="6mDI3OhpWZzd0p22wOLu-2" value="applsec" style="rounded=0;whiteSpace=wrap;html=1;" parent="1" vertex="1">
          <mxGeometry x="1120" y="3040" width="120" height="60" as="geometry" />
        </mxCell>
        <mxCell id="8CcA_JuzjkeTqlIGiyvU-1" value="" style="endArrow=classic;html=1;rounded=0;exitX=1.013;exitY=0.358;exitDx=0;exitDy=0;exitPerimeter=0;entryX=0.333;entryY=1.042;entryDx=0;entryDy=0;entryPerimeter=0;" parent="1" source="h8vXZWkIKEI4oMdLuwox-19" target="h8vXZWkIKEI4oMdLuwox-15" edge="1">
          <mxGeometry width="50" height="50" relative="1" as="geometry">
            <mxPoint x="420" y="1990" as="sourcePoint" />
            <mxPoint x="470" y="1940" as="targetPoint" />
            <Array as="points">
              <mxPoint x="630" y="2030" />
            </Array>
          </mxGeometry>
        </mxCell>
        <mxCell id="8CcA_JuzjkeTqlIGiyvU-2" value="" style="endArrow=classic;html=1;rounded=0;exitX=0.479;exitY=1.025;exitDx=0;exitDy=0;exitPerimeter=0;entryX=-0.008;entryY=0.5;entryDx=0;entryDy=0;entryPerimeter=0;" parent="1" source="h8vXZWkIKEI4oMdLuwox-7" target="h8vXZWkIKEI4oMdLuwox-15" edge="1">
          <mxGeometry width="50" height="50" relative="1" as="geometry">
            <mxPoint x="420" y="1990" as="sourcePoint" />
            <mxPoint x="470" y="1940" as="targetPoint" />
            <Array as="points">
              <mxPoint x="177" y="1850" />
            </Array>
          </mxGeometry>
        </mxCell>
        <mxCell id="ahFS29yWS6DuyMkJrLS5-3" value="" style="endArrow=classic;html=1;rounded=0;exitX=1;exitY=0.5;exitDx=0;exitDy=0;exitPerimeter=0;" parent="1" source="WD0VOLjLb8rx63cyiyeR-23" edge="1">
          <mxGeometry width="50" height="50" relative="1" as="geometry">
            <mxPoint x="1150" y="2080" as="sourcePoint" />
            <mxPoint x="1400" y="1790" as="targetPoint" />
            <Array as="points">
              <mxPoint x="1400" y="2200" />
            </Array>
          </mxGeometry>
        </mxCell>
        <mxCell id="vSPQ-qDAylMsSPFDbHfD-1" value="" style="ellipse;whiteSpace=wrap;html=1;" parent="1" vertex="1">
          <mxGeometry x="-350" y="280" width="120" height="80" as="geometry" />
        </mxCell>
        <mxCell id="CCGMqp9EOQj2q103GPxQ-3" value="" style="edgeStyle=orthogonalEdgeStyle;rounded=0;orthogonalLoop=1;jettySize=auto;html=1;exitX=-0.025;exitY=0.525;exitDx=0;exitDy=0;exitPerimeter=0;entryX=1.008;entryY=0.533;entryDx=0;entryDy=0;entryPerimeter=0;" parent="1" source="CCGMqp9EOQj2q103GPxQ-2" target="CCGMqp9EOQj2q103GPxQ-1" edge="1">
          <mxGeometry relative="1" as="geometry">
            <mxPoint x="1300" y="3490" as="targetPoint" />
          </mxGeometry>
        </mxCell>
        <mxCell id="CCGMqp9EOQj2q103GPxQ-11" value="" style="edgeStyle=orthogonalEdgeStyle;rounded=0;orthogonalLoop=1;jettySize=auto;html=1;" parent="1" source="CCGMqp9EOQj2q103GPxQ-1" target="CCGMqp9EOQj2q103GPxQ-10" edge="1">
          <mxGeometry relative="1" as="geometry" />
        </mxCell>
        <mxCell id="CCGMqp9EOQj2q103GPxQ-1" value="modeller(dll)" style="rounded=0;whiteSpace=wrap;html=1;" parent="1" vertex="1">
          <mxGeometry x="1140" y="3360" width="120" height="60" as="geometry" />
        </mxCell>
        <mxCell id="CCGMqp9EOQj2q103GPxQ-2" value="modellertest(exe)" style="rounded=0;whiteSpace=wrap;html=1;" parent="1" vertex="1">
          <mxGeometry x="1360" y="3360" width="120" height="60" as="geometry" />
        </mxCell>
        <mxCell id="CCGMqp9EOQj2q103GPxQ-4" value="apiod(dll)" style="rounded=0;whiteSpace=wrap;html=1;" parent="1" vertex="1">
          <mxGeometry x="1140" y="3220" width="120" height="60" as="geometry" />
        </mxCell>
        <mxCell id="CCGMqp9EOQj2q103GPxQ-6" value="" style="endArrow=classic;html=1;rounded=0;exitX=0.496;exitY=1.067;exitDx=0;exitDy=0;exitPerimeter=0;entryX=0.5;entryY=-0.067;entryDx=0;entryDy=0;entryPerimeter=0;" parent="1" source="CCGMqp9EOQj2q103GPxQ-4" target="CCGMqp9EOQj2q103GPxQ-1" edge="1">
          <mxGeometry width="50" height="50" relative="1" as="geometry">
            <mxPoint x="1210" y="3470" as="sourcePoint" />
            <mxPoint x="1260" y="3420" as="targetPoint" />
          </mxGeometry>
        </mxCell>
        <mxCell id="CCGMqp9EOQj2q103GPxQ-7" value="apiodtest(exe)" style="rounded=0;whiteSpace=wrap;html=1;" parent="1" vertex="1">
          <mxGeometry x="1360" y="3220" width="120" height="60" as="geometry" />
        </mxCell>
        <mxCell id="CCGMqp9EOQj2q103GPxQ-9" value="" style="edgeStyle=orthogonalEdgeStyle;rounded=0;orthogonalLoop=1;jettySize=auto;html=1;exitX=-0.025;exitY=0.525;exitDx=0;exitDy=0;exitPerimeter=0;entryX=1.008;entryY=0.533;entryDx=0;entryDy=0;entryPerimeter=0;" parent="1" edge="1">
          <mxGeometry relative="1" as="geometry">
            <mxPoint x="1356.04" y="3250.5" as="sourcePoint" />
            <mxPoint x="1260.04" y="3250.5" as="targetPoint" />
          </mxGeometry>
        </mxCell>
        <mxCell id="CCGMqp9EOQj2q103GPxQ-10" value="appl ,base,db,om," style="whiteSpace=wrap;html=1;rounded=0;" parent="1" vertex="1">
          <mxGeometry x="1090" y="3530" width="220" height="150" as="geometry" />
        </mxCell>
        <mxCell id="ZtImn2mYXlgXaB_t8IYS-1" value="编译通过" style="text;html=1;align=center;verticalAlign=middle;whiteSpace=wrap;rounded=0;" parent="1" vertex="1">
          <mxGeometry x="1160" y="3390" width="60" height="30" as="geometry" />
        </mxCell>
        <mxCell id="ZtImn2mYXlgXaB_t8IYS-2" value="编译通过" style="text;html=1;align=center;verticalAlign=middle;whiteSpace=wrap;rounded=0;" parent="1" vertex="1">
          <mxGeometry x="1170" y="3250" width="60" height="30" as="geometry" />
        </mxCell>
        <mxCell id="ZtImn2mYXlgXaB_t8IYS-3" value="编译失败" style="text;html=1;align=center;verticalAlign=middle;whiteSpace=wrap;rounded=0;" parent="1" vertex="1">
          <mxGeometry x="1390" y="3250" width="60" height="30" as="geometry" />
        </mxCell>
        <mxCell id="ZtImn2mYXlgXaB_t8IYS-4" value="编译失败" style="text;html=1;align=center;verticalAlign=middle;whiteSpace=wrap;rounded=0;" parent="1" vertex="1">
          <mxGeometry x="1380" y="3390" width="60" height="30" as="geometry" />
        </mxCell>
        <mxCell id="ZtImn2mYXlgXaB_t8IYS-5" value="topo" style="rounded=0;whiteSpace=wrap;html=1;" parent="1" vertex="1">
          <mxGeometry x="800" y="3580" width="70" height="40" as="geometry" />
        </mxCell>
        <mxCell id="ZtImn2mYXlgXaB_t8IYS-6" value="Core" style="rounded=0;whiteSpace=wrap;html=1;" parent="1" vertex="1">
          <mxGeometry x="900" y="3580" width="70" height="40" as="geometry" />
        </mxCell>
        <mxCell id="ZtImn2mYXlgXaB_t8IYS-7" value="geomcore" style="rounded=0;whiteSpace=wrap;html=1;" parent="1" vertex="1">
          <mxGeometry x="980" y="3580" width="70" height="40" as="geometry" />
        </mxCell>
        <mxCell id="ZtImn2mYXlgXaB_t8IYS-8" value="" style="endArrow=classic;html=1;rounded=0;exitX=0.483;exitY=1.1;exitDx=0;exitDy=0;exitPerimeter=0;entryX=0.479;entryY=-0.112;entryDx=0;entryDy=0;entryPerimeter=0;" parent="1" source="ZtImn2mYXlgXaB_t8IYS-1" target="ZtImn2mYXlgXaB_t8IYS-7" edge="1">
          <mxGeometry width="50" height="50" relative="1" as="geometry">
            <mxPoint x="900" y="3500" as="sourcePoint" />
            <mxPoint x="950" y="3450" as="targetPoint" />
            <Array as="points">
              <mxPoint x="1020" y="3460" />
            </Array>
          </mxGeometry>
        </mxCell>
        <mxCell id="ZtImn2mYXlgXaB_t8IYS-9" value="" style="endArrow=classic;html=1;rounded=0;exitX=0.567;exitY=1.033;exitDx=0;exitDy=0;exitPerimeter=0;entryX=0.479;entryY=-0.112;entryDx=0;entryDy=0;entryPerimeter=0;" parent="1" source="ZtImn2mYXlgXaB_t8IYS-1" edge="1">
          <mxGeometry width="50" height="50" relative="1" as="geometry">
            <mxPoint x="1110.02" y="3420" as="sourcePoint" />
            <mxPoint x="935.02" y="3573" as="targetPoint" />
            <Array as="points">
              <mxPoint x="941.02" y="3457" />
            </Array>
          </mxGeometry>
        </mxCell>
        <mxCell id="ZtImn2mYXlgXaB_t8IYS-10" value="" style="endArrow=classic;html=1;rounded=0;exitX=0.442;exitY=1.017;exitDx=0;exitDy=0;exitPerimeter=0;entryX=0.479;entryY=-0.112;entryDx=0;entryDy=0;entryPerimeter=0;" parent="1" source="CCGMqp9EOQj2q103GPxQ-1" edge="1">
          <mxGeometry width="50" height="50" relative="1" as="geometry">
            <mxPoint x="1010" y="3430" as="sourcePoint" />
            <mxPoint x="835" y="3583" as="targetPoint" />
            <Array as="points">
              <mxPoint x="841" y="3467" />
            </Array>
          </mxGeometry>
        </mxCell>
        <mxCell id="ZtImn2mYXlgXaB_t8IYS-11" value="" style="endArrow=classic;html=1;rounded=0;entryX=0.621;entryY=-0.137;entryDx=0;entryDy=0;entryPerimeter=0;" parent="1" target="ZtImn2mYXlgXaB_t8IYS-7" edge="1">
          <mxGeometry width="50" height="50" relative="1" as="geometry">
            <mxPoint x="1190" y="3280" as="sourcePoint" />
            <mxPoint x="1060" y="3510" as="targetPoint" />
            <Array as="points">
              <mxPoint x="1060" y="3350" />
            </Array>
          </mxGeometry>
        </mxCell>
        <mxCell id="ZtImn2mYXlgXaB_t8IYS-12" value="" style="endArrow=classic;html=1;rounded=0;entryX=0.621;entryY=-0.137;entryDx=0;entryDy=0;entryPerimeter=0;" parent="1" edge="1">
          <mxGeometry width="50" height="50" relative="1" as="geometry">
            <mxPoint x="1190" y="3280" as="sourcePoint" />
            <mxPoint x="952" y="3569.51" as="targetPoint" />
            <Array as="points">
              <mxPoint x="989" y="3344.51" />
            </Array>
          </mxGeometry>
        </mxCell>
        <mxCell id="ZtImn2mYXlgXaB_t8IYS-13" value="" style="endArrow=classic;html=1;rounded=0;entryX=0.621;entryY=-0.137;entryDx=0;entryDy=0;entryPerimeter=0;" parent="1" edge="1">
          <mxGeometry width="50" height="50" relative="1" as="geometry">
            <mxPoint x="1190" y="3280" as="sourcePoint" />
            <mxPoint x="860" y="3570" as="targetPoint" />
            <Array as="points">
              <mxPoint x="897" y="3345" />
            </Array>
          </mxGeometry>
        </mxCell>
        <mxCell id="ZtImn2mYXlgXaB_t8IYS-14" value="编译时大量找不到GEOM_CORE导出符号所修饰的函数导致链接错误" style="text;html=1;align=center;verticalAlign=middle;whiteSpace=wrap;rounded=0;" parent="1" vertex="1">
          <mxGeometry x="1490" y="3235" width="150" height="45" as="geometry" />
        </mxCell>
        <mxCell id="ZtImn2mYXlgXaB_t8IYS-15" value="基于apiod 的单元测试模块" style="text;html=1;align=center;verticalAlign=middle;whiteSpace=wrap;rounded=0;" parent="1" vertex="1">
          <mxGeometry x="1390" y="3170" width="90" height="30" as="geometry" />
        </mxCell>
        <mxCell id="ZtImn2mYXlgXaB_t8IYS-16" value="基于modeller 的单元测试模块" style="text;html=1;align=center;verticalAlign=middle;whiteSpace=wrap;rounded=0;" parent="1" vertex="1">
          <mxGeometry x="1390" y="3310" width="90" height="30" as="geometry" />
        </mxCell>
        <mxCell id="fPAziwFGXQKSX9c0B8e3-1" value="ZW3d(exe)" style="rounded=0;whiteSpace=wrap;html=1;" parent="1" vertex="1">
          <mxGeometry x="2210" y="1794" width="120" height="60" as="geometry" />
        </mxCell>
        <mxCell id="fPAziwFGXQKSX9c0B8e3-3" value="" style="edgeStyle=orthogonalEdgeStyle;rounded=0;orthogonalLoop=1;jettySize=auto;html=1;" parent="1" source="fPAziwFGXQKSX9c0B8e3-2" target="fPAziwFGXQKSX9c0B8e3-1" edge="1">
          <mxGeometry relative="1" as="geometry" />
        </mxCell>
        <mxCell id="fPAziwFGXQKSX9c0B8e3-2" value="ZWInstance(dll&lt;span style=&quot;background-color: initial;&quot;&gt;)&lt;/span&gt;" style="rounded=0;whiteSpace=wrap;html=1;" parent="1" vertex="1">
          <mxGeometry x="2020" y="1794" width="120" height="60" as="geometry" />
        </mxCell>
        <mxCell id="fPAziwFGXQKSX9c0B8e3-6" value="" style="edgeStyle=orthogonalEdgeStyle;rounded=0;orthogonalLoop=1;jettySize=auto;html=1;" parent="1" source="fPAziwFGXQKSX9c0B8e3-4" target="fPAziwFGXQKSX9c0B8e3-2" edge="1">
          <mxGeometry relative="1" as="geometry" />
        </mxCell>
        <mxCell id="fPAziwFGXQKSX9c0B8e3-4" value="DrawingInstance(&lt;br&gt;ZW3D_CAD.dll)&lt;div&gt;)&lt;/div&gt;" style="whiteSpace=wrap;html=1;rounded=0;" parent="1" vertex="1">
          <mxGeometry x="1780" y="1784" width="140" height="80" as="geometry" />
        </mxCell>
        <mxCell id="fPAziwFGXQKSX9c0B8e3-7" value="" style="endArrow=classic;html=1;rounded=0;exitX=1.008;exitY=0.542;exitDx=0;exitDy=0;exitPerimeter=0;" parent="1" source="6mDI3OhpWZzd0p22wOLu-1" edge="1">
          <mxGeometry width="50" height="50" relative="1" as="geometry">
            <mxPoint x="1140" y="2910" as="sourcePoint" />
            <mxPoint x="1760" y="2990" as="targetPoint" />
          </mxGeometry>
        </mxCell>
        <mxCell id="fPAziwFGXQKSX9c0B8e3-8" value="" style="endArrow=classic;html=1;rounded=0;" parent="1" edge="1">
          <mxGeometry width="50" height="50" relative="1" as="geometry">
            <mxPoint x="1760" y="2990" as="sourcePoint" />
            <mxPoint x="1840" y="1870" as="targetPoint" />
          </mxGeometry>
        </mxCell>
        <mxCell id="fPAziwFGXQKSX9c0B8e3-9" value="" style="endArrow=classic;html=1;rounded=0;exitX=0.994;exitY=0.417;exitDx=0;exitDy=0;exitPerimeter=0;" parent="1" source="6mDI3OhpWZzd0p22wOLu-2" edge="1">
          <mxGeometry width="50" height="50" relative="1" as="geometry">
            <mxPoint x="1950" y="2360" as="sourcePoint" />
            <mxPoint x="1760" y="3000" as="targetPoint" />
          </mxGeometry>
        </mxCell>
        <mxCell id="pIri72yYv4wiX42fGnUZ-1" value="Module" style="shape=module;align=left;spacingLeft=20;align=center;verticalAlign=top;whiteSpace=wrap;html=1;" parent="1" vertex="1">
          <mxGeometry x="-360" y="1784" width="100" height="50" as="geometry" />
        </mxCell>
        <mxCell id="pIri72yYv4wiX42fGnUZ-2" value="package" style="shape=folder;fontStyle=1;spacingTop=10;tabWidth=40;tabHeight=14;tabPosition=left;html=1;whiteSpace=wrap;" parent="1" vertex="1">
          <mxGeometry x="-340" y="1920" width="70" height="50" as="geometry" />
        </mxCell>
        <mxCell id="FkrX2VjCPJ3TeeKKDkOr-1" value="cad(cad.lib)" style="rounded=0;whiteSpace=wrap;html=1;" parent="1" vertex="1">
          <mxGeometry x="1480" y="2870" width="120" height="60" as="geometry" />
        </mxCell>
        <mxCell id="FkrX2VjCPJ3TeeKKDkOr-2" value="" style="endArrow=classic;html=1;rounded=0;exitX=1.008;exitY=0.533;exitDx=0;exitDy=0;exitPerimeter=0;" parent="1" source="FkrX2VjCPJ3TeeKKDkOr-1" edge="1">
          <mxGeometry width="50" height="50" relative="1" as="geometry">
            <mxPoint x="1680" y="2900" as="sourcePoint" />
            <mxPoint x="1760" y="2990" as="targetPoint" />
          </mxGeometry>
        </mxCell>
        <mxCell id="WZM6UhNWopmeepsqGIoj-1" value="" style="endArrow=classic;html=1;rounded=0;exitX=1.021;exitY=0.508;exitDx=0;exitDy=0;exitPerimeter=0;entryX=0.007;entryY=0.525;entryDx=0;entryDy=0;entryPerimeter=0;" parent="1" source="WD0VOLjLb8rx63cyiyeR-3" target="fPAziwFGXQKSX9c0B8e3-4" edge="1">
          <mxGeometry width="50" height="50" relative="1" as="geometry">
            <mxPoint x="1530" y="1910" as="sourcePoint" />
            <mxPoint x="1580" y="1860" as="targetPoint" />
          </mxGeometry>
        </mxCell>
        <mxCell id="iiO8oR7OkS9ya7MbqqK7-1" value="" style="edgeStyle=orthogonalEdgeStyle;rounded=0;orthogonalLoop=1;jettySize=auto;html=1;" edge="1" parent="1" source="iiO8oR7OkS9ya7MbqqK7-2" target="iiO8oR7OkS9ya7MbqqK7-4">
          <mxGeometry relative="1" as="geometry" />
        </mxCell>
        <mxCell id="iiO8oR7OkS9ya7MbqqK7-2" value="«ZwOverdrive»&lt;br&gt;&lt;b&gt;Component&lt;/b&gt;" style="html=1;dropTarget=0;whiteSpace=wrap;" vertex="1" parent="1">
          <mxGeometry x="-11" y="3670" width="180" height="90" as="geometry" />
        </mxCell>
        <mxCell id="iiO8oR7OkS9ya7MbqqK7-3" value="" style="shape=module;jettyWidth=8;jettyHeight=4;" vertex="1" parent="iiO8oR7OkS9ya7MbqqK7-2">
          <mxGeometry x="1" width="20" height="20" relative="1" as="geometry">
            <mxPoint x="-27" y="7" as="offset" />
          </mxGeometry>
        </mxCell>
        <mxCell id="iiO8oR7OkS9ya7MbqqK7-4" value="«Appl»&lt;br&gt;&lt;b&gt;Component&lt;/b&gt;" style="html=1;dropTarget=0;whiteSpace=wrap;" vertex="1" parent="1">
          <mxGeometry x="-11" y="3840" width="180" height="90" as="geometry" />
        </mxCell>
        <mxCell id="iiO8oR7OkS9ya7MbqqK7-5" value="" style="shape=module;jettyWidth=8;jettyHeight=4;" vertex="1" parent="iiO8oR7OkS9ya7MbqqK7-4">
          <mxGeometry x="1" width="20" height="20" relative="1" as="geometry">
            <mxPoint x="-27" y="7" as="offset" />
          </mxGeometry>
        </mxCell>
        <mxCell id="iiO8oR7OkS9ya7MbqqK7-6" value="" style="edgeStyle=orthogonalEdgeStyle;rounded=0;orthogonalLoop=1;jettySize=auto;html=1;entryX=0.464;entryY=0;entryDx=0;entryDy=0;entryPerimeter=0;" edge="1" parent="1" source="iiO8oR7OkS9ya7MbqqK7-7" target="iiO8oR7OkS9ya7MbqqK7-2">
          <mxGeometry relative="1" as="geometry">
            <mxPoint x="44" y="3625" as="targetPoint" />
          </mxGeometry>
        </mxCell>
        <mxCell id="iiO8oR7OkS9ya7MbqqK7-7" value="ZW3d" style="html=1;whiteSpace=wrap;" vertex="1" parent="1">
          <mxGeometry x="-90" y="3490" width="110" height="50" as="geometry" />
        </mxCell>
        <mxCell id="iiO8oR7OkS9ya7MbqqK7-8" value="" style="edgeStyle=orthogonalEdgeStyle;rounded=0;orthogonalLoop=1;jettySize=auto;html=1;entryX=0.653;entryY=-0.017;entryDx=0;entryDy=0;entryPerimeter=0;" edge="1" parent="1" source="iiO8oR7OkS9ya7MbqqK7-9" target="iiO8oR7OkS9ya7MbqqK7-2">
          <mxGeometry relative="1" as="geometry">
            <mxPoint x="230" y="3670" as="targetPoint" />
          </mxGeometry>
        </mxCell>
        <mxCell id="iiO8oR7OkS9ya7MbqqK7-9" value="«ZwOverdriveCApi»&lt;br&gt;&lt;b&gt;Component&lt;/b&gt;" style="html=1;dropTarget=0;whiteSpace=wrap;" vertex="1" parent="1">
          <mxGeometry x="140" y="3530" width="180" height="60" as="geometry" />
        </mxCell>
        <mxCell id="iiO8oR7OkS9ya7MbqqK7-10" value="" style="shape=module;jettyWidth=8;jettyHeight=4;" vertex="1" parent="iiO8oR7OkS9ya7MbqqK7-9">
          <mxGeometry x="1" width="20" height="20" relative="1" as="geometry">
            <mxPoint x="-27" y="7" as="offset" />
          </mxGeometry>
        </mxCell>
        <mxCell id="iiO8oR7OkS9ya7MbqqK7-11" value="for zhuhun project and&amp;nbsp;external client&amp;nbsp;" style="text;html=1;align=center;verticalAlign=middle;whiteSpace=wrap;rounded=0;" vertex="1" parent="1">
          <mxGeometry x="190" y="3490" width="130" height="30" as="geometry" />
        </mxCell>
      </root>
    </mxGraphModel>
  </diagram>
</mxfile>
